<?xml version="1.0" standalone="no"?>
<!DOCTYPE svg PUBLIC "-//W3C//DTD SVG 20010904//EN"
 "http://www.w3.org/TR/2001/REC-SVG-20010904/DTD/svg10.dtd">
<svg version="1.0" xmlns="http://www.w3.org/2000/svg"
 width="300.000000pt" height="300.000000pt" viewBox="0 0 300.000000 300.000000"
 preserveAspectRatio="xMidYMid meet">
<metadata>
Created by potrace 1.14, written by Peter Selinger 2001-2017
</metadata>
<g transform="translate(0.000000,300.000000) scale(0.100000,-0.100000)"
fill="#000000" stroke="none">
<path d="M613 2475 c-63 -32 -102 -87 -110 -155 -8 -67 30 -146 88 -185 63
-41 130 -44 199 -8 44 23 60 39 82 82 36 68 36 114 0 182 -22 43 -38 59 -81
81 -66 35 -112 35 -178 3z"/>
<path d="M2213 2475 c-63 -32 -102 -87 -110 -155 -8 -67 30 -146 88 -185 63
-41 130 -44 199 -8 44 23 60 39 82 82 16 31 28 69 28 91 0 22 -12 60 -28 91
-22 43 -38 59 -81 81 -66 35 -112 35 -178 3z"/>
<path d="M613 1675 c-63 -32 -102 -87 -110 -155 -8 -67 30 -146 88 -185 63
-41 130 -44 199 -8 44 23 60 39 82 82 36 68 36 114 0 182 -22 43 -38 59 -81
81 -66 35 -112 35 -178 3z"/>
<path d="M2213 1675 c-63 -32 -102 -87 -110 -155 -8 -67 30 -146 88 -185 63
-41 130 -44 199 -8 44 23 60 39 82 82 16 31 28 69 28 91 0 22 -12 60 -28 91
-22 43 -38 59 -81 81 -66 35 -112 35 -178 3z"/>
<path d="M613 875 c-63 -32 -102 -87 -110 -155 -8 -67 30 -146 88 -185 63 -41
130 -44 199 -8 44 23 60 39 82 82 36 68 36 114 0 182 -22 43 -38 59 -81 81
-66 35 -112 35 -178 3z"/>
<path d="M2213 875 c-63 -32 -102 -87 -110 -155 -8 -67 30 -146 88 -185 63
-41 130 -44 199 -8 44 23 60 39 82 82 16 31 28 69 28 91 0 22 -12 60 -28 91
-22 43 -38 59 -81 81 -66 35 -112 35 -178 3z"/>
</g>
</svg>
